# AST/ASF file generated using VICON BodyLanguage
# -----------------------------------------------
:version 1.10
:name VICON
:units
  mass 1.0
  length 0.45
  angle deg
:documentation
   .ast/.asf automatically generated from VICON data using
   VICON BodyBuilder and BodyLanguage model FoxedUp or BRILLIANT.MOD
:root
   order TX TY TZ RX RY RZ
   axis XYZ
   position 0 0 0  
   orientation 0 0 0 
:bonedata
  begin
     id 1 
     name lhipjoint
     direction 0.677091 -0.635792 0.370561 
     length 2.74323 
     axis 0 0 0  XYZ
  end
  begin
     id 2 
     name lfemur
     direction 0.34202 -0.939693 0  
     length 7.44995  
     axis 0 0 20  XYZ
    dof rx ry rz
    limits (-160.0 20.0)
           (-70.0 70.0)
           (-60.0 70.0)
  end
  begin
     id 3 
     name ltibia
     direction 0.34202 -0.939693 0   
     length 7.34467   
     axis 0 0 20   XYZ
    dof rx
    limits (-10.0 170.0)
  end
  begin
     id 4 
     name lfoot
     direction 0.101953 -0.280114 0.954537   
     length 1.72105   
     axis -90 7.62852e-016 20   XYZ
    dof rx rz
    limits (-45.0 90.0)
           (-70.0 20.0)
  end
  begin
     id 5 
     name ltoes
     direction 1.53537e-011 -4.21915e-011 1   
     length 0.865872   
     axis -90 7.62852e-016 20   XYZ
    dof rx
    limits (-90.0 20.0)
  end
  begin
     id 6 
     name rhipjoint
     direction -0.695735 -0.620586 0.361699   
     length 2.81045  
     axis 0 0 0  XYZ 
  end
  begin
     id 7 
     name rfemur
     direction -0.34202 -0.939693 0   
     length 7.29387   
     axis 0 0 -20   XYZ
    dof rx ry rz
    limits (-160.0 20.0)
           (-70.0 70.0)
           (-70.0 60.0)
  end
  begin
     id 8 
     name rtibia
     direction -0.34202 -0.939693 0   
     length 7.44935   
     axis 0 0 -20   XYZ
    dof rx
    limits (-10.0 170.0)
 end
 begin
     id 9 
     name rfoot
     direction -0.104163 -0.286184 0.952496   
     length 1.77731  
     axis -90 -7.62852e-016 -20   XYZ
    dof rx rz
    limits (-45.0 90.0)
           (-20.0 70.0)
  end
  begin
     id 10 
     name rtoes
     direction -1.5355e-011 -4.21888e-011 1   
     length 0.892424   
     axis -90 -7.62852e-016 -20   XYZ
    dof rx
    limits (-90.0 20.0)
  end
  begin
     id 11 
     name lowerback
     direction 0.0100202 0.997226 -0.0737589   
     length 2.16892   
     axis 0 0 0   XYZ
    dof rx ry rz
    limits (-20.0 45.0)
           (-30.0 30.0)
           (-30.0 30.0)
  end
  begin
     id 12 
     name upperback
     direction 0.00432398 0.999988 -0.00215019   
     length 2.17326   
     axis 0 0 0   XYZ
    dof rx ry rz
    limits (-20.0 45.0)
           (-30.0 30.0)
           (-30.0 30.0)
  end
  begin
     id 13 
     name thorax
     direction -0.00195047 0.999485 0.0320434   
     length 2.18139   
     axis 0 0 0   XYZ
    dof rx ry rz
    limits (-20.0 45.0)
           (-30.0 30.0)
           (-30.0 30.0)
  end
  begin
     id 14 
     name lowerneck
     direction 0.00782762 0.986241 0.165128   
     length 1.88415   
     axis 0 0 0   XYZ
    dof rx ry rz
    limits (-20.0 45.0)
           (-30.0 30.0)
           (-30.0 30.0)
  end
  begin
     id 15 
     name upperneck
     direction 0.00988667 0.981098 -0.193258   
     length 1.9242   
     axis 0 0 0   XYZ
    dof rx ry rz
    limits (-20.0 45.0)
           (-30.0 30.0)
           (-30.0 30.0)
  end
  begin
     id 16
     name head
     direction 0.00252199 0.996513 -0.0833958  
     length 1.93887  
     axis 0 0 0   XYZ
    dof rx ry rz
    limits (-20.0 45.0)
           (-30.0 30.0)
           (-30.0 30.0)
  end
  begin
     id 17 
     name lclavicle
     direction 0.929492 0.368193 -0.0218667  
     length 3.5955  
     axis 0 0 0   XYZ
    dof ry rz
    limits (-20.0 10.0)
           (0.0 20.0)
  end
  begin
     id 18 
     name lhumerus
     direction 1 -4.48972e-011 1.41911e-027   
     length 5.2795   
     axis 180 -30 -90   XYZ
    dof rx ry rz
    limits (-60.0 90.0)
           (-90.0 90.0)
           (-90.0 90.0)
  end
  begin
     id 19
     name lradius
     direction 1 -4.48963e-011 7.05772e-027   
     length 3.53504   
     axis 180 -30 -90   XYZ
    dof rx
    limits (-10.0 170.0)
  end
  begin
     id 20
     name lwrist
     direction 1 -4.48957e-011 9.54866e-027   
     length 1.76752   
     axis -7.69462e-015 90 90   XYZ
    dof ry
    limits (-180.0 0.0)
 end
  begin
     id 21 
     name lhand
     direction 1 -4.48979e-011 1.90973e-026   
     length 0.667948   
     axis -1.21857e-014 90 90   XYZ
    dof rx rz
    limits (-90.0 90.0)
           (-45.0 45.0)
  end
  begin
     id 22 
     name lfingers
     direction 1 -4.48987e-011 3.81946e-026   
     length 0.538517   
     axis -2.43714e-014 90 90   XYZ
    dof rx
    limits (0.0 90.0)
  end
  begin
     id 23
     name lthumb
     direction 0.707107 -6.34962e-011 0.707107   
     length 0.773206   
     axis -90 45 2.85299e-015   XYZ
    dof rx rz
    limits (-45.0 45.0)
           (-45.0 45.0)
  end
  begin
     id 24 
     name rclavicle
     direction -0.898763 0.414256 -0.143584   
     length 3.5176  
     axis 0 0 0   XYZ 
    dof ry rz
    limits (-10.0 20.0)
           (-20.0 0.0)
  end
  begin
     id 25 
     name rhumerus
     direction -1 -4.48971e-011 1.129e-027  
     length 5.25035   
     axis 180 30 90   XYZ
    dof rx ry rz
    limits (-90.0 60.0)
           (-90.0 90.0)
           (-90.0 90.0)
  end
  begin
     id 26 
     name rradius
     direction -1 -4.48955e-011 6.34664e-027   
     length 3.58884   
     axis 180 30 90   XYZ
    dof rx
    limits (-10.0 170.0)
  end
  begin
     id 27 
     name rwrist
     direction -1 -4.48966e-011 9.54866e-027   
     length 1.79442   
     axis -7.69462e-015 -90 -90   XYZ
    dof ry
    limits (-180.0 0.0)
  end
  begin
     id 28
     name rhand
     direction -1 -4.48973e-011 1.90973e-026   
     length 0.779235   
     axis -1.21857e-014 -90 -90   XYZ
    dof rx rz
    limits (-90.0 90.0)
           (-45.0 45.0)
  end
  begin
     id 29
     name rfingers
     direction -1 -4.48984e-011 3.81946e-026   
     length 0.62824   
     axis -2.43714e-014 -90 -90   XYZ
    dof rx
    limits (0.0 90.0)
  end
  begin
     id 30
     name rthumb
     direction -0.707107 -6.34968e-011 0.707107   
     length 0.90203   
     axis -90 -45 -2.85299e-015   XYZ
    dof rx rz
    limits (-45.0 45.0)
           (-45.0 45.0)
  end
:hierarchy
  begin
    root lhipjoint rhipjoint lowerback
    lhipjoint lfemur
    lfemur ltibia
    ltibia lfoot
    lfoot ltoes
    rhipjoint rfemur
    rfemur rtibia
    rtibia rfoot
    rfoot rtoes
    lowerback upperback
    upperback thorax
    thorax lowerneck lclavicle rclavicle
    lowerneck upperneck
    upperneck head
    lclavicle lhumerus
    lhumerus lradius
    lradius lwrist
    lwrist lhand lthumb
    lhand lfingers
    rclavicle rhumerus
    rhumerus rradius
    rradius rwrist
    rwrist rhand rthumb
    rhand rfingers
  end

#!OML:ASF I:\Random Stuff\random\construction\7_22_03\Session 2\subj1.ASF
:FULLY-SPECIFIED
:DEGREES
234
root -1.56044 17.8231 0.859198 -185.913 88.9752 -195.102
lowerback 2.15519 -1.14531 2.84176
upperback -1.16414 -1.25228 4.38289
thorax -2.37294 -0.596864 2.97197
lowerneck -15.0567 -11.634 -7.78219
upperneck 37.4298 -16.3732 6.21169
head 17.5626 -6.50355 1.01892
rclavicle 8.74653e-015 3.33958e-014
rhumerus -32.1572 -20.4945 -68.2252
rradius 49.4456
rwrist -49.3189
rhand -33.8589 11.4201
rfingers 7.12502
rthumb -7.04339 -18.4427
lclavicle 8.74653e-015 3.33958e-014
lhumerus -34.4529 1.30327 90.2433
lradius 43.5956
lwrist 30.1211
lhand -16.1041 53.5009
lfingers 7.12502
lthumb 10.0997 83.2385
rfemur -8.77803 11.3236 18.6426
rtibia 13.5752
rfoot -6.80442 -22.8876
rtoes -13.1629
lfemur -11.5218 -20.118 -13.17
ltibia 14.8391
lfoot -11.3373 15.7741
ltoes -33.3874
235
root -1.55252 17.8192 0.85584 -185.693 89.2283 -194.8
lowerback 2.10284 -1.15863 2.73016
upperback -1.17687 -1.2823 4.29003
thorax -2.35485 -0.612661 2.93841
lowerneck -15.0533 -11.5431 -7.8123
upperneck 37.4193 -16.2661 6.29993
head 17.5613 -6.45577 1.08598
rclavicle 2.04748e-014 -3.97569e-014
rhumerus -32.6834 -20.9824 -67.9939
rradius 49.5998
rwrist -49.1217
rhand -34.2469 9.85945
rfingers 7.12502
rthumb -7.41789 -19.9905
lclavicle 2.04748e-014 -3.97569e-014
lhumerus -34.4353 1.26549 90.2321
lradius 44.0529
lwrist 30.1104
lhand -16.0945 53.4153
lfingers 7.12502
lthumb 10.1089 83.1524
rfemur -8.60423 11.6008 18.6948
rtibia 13.3983
rfoot -6.74743 -22.9258
rtoes -13.1147
lfemur -11.3951 -19.7756 -13.2028
ltibia 14.9805
lfoot -11.4848 15.6509
ltoes -33.3902
236
root -1.54513 17.8158 0.850335 -186.64 89.4579 -195.66
lowerback 2.04893 -1.16882 2.60445
upperback -1.17778 -1.30917 4.1957
thorax -2.3235 -0.626681 2.91086
lowerneck -15.2302 -11.4527 -7.79411
upperneck 37.5363 -16.1479 6.30938
head 17.658 -6.39436 1.1033
rclavicle -1.0138e-014 3.65764e-014
rhumerus -33.1108 -21.6422 -67.6793
rradius 49.4987
rwrist -49.0239
rhand -34.506 8.10459
rfingers 7.12502
rthumb -7.66795 -21.7364
lclavicle -1.0138e-014 3.65764e-014
lhumerus -34.3874 1.15764 90.2733
lradius 44.4432
lwrist 30.2791
lhand -16.247 53.7074
lfingers 7.12502
lthumb 9.96185 83.4517
rfemur -8.39081 11.8135 18.7298
rtibia 13.1796
rfoot -6.73118 -22.9163
rtoes -13.1208
lfemur -11.2655 -19.7991 -13.2417
ltibia 15.139
lfoot -11.6435 15.8891
ltoes -33.4837
237
root -1.53945 17.8115 0.843952 -173.61 89.6712 -182.515
lowerback 2.00475 -1.19292 2.53082
upperback -1.1683 -1.34993 4.14725
thorax -2.28678 -0.647282 2.90226
lowerneck -15.6363 -11.3502 -7.6505
upperneck 37.8701 -15.9603 6.07098
head 17.8765 -6.30323 0.994063
rclavicle -5.76476e-015 -7.95139e-015
rhumerus -33.4206 -22.4415 -67.2864
rradius 49.1551
rwrist -49.0741
rhand -34.678 6.38014
rfingers 7.12502
rthumb -7.83399 -23.4547
lclavicle -5.76476e-015 -7.95139e-015
lhumerus -34.3529 1.04154 90.3442
lradius 44.7359
lwrist 30.4762
lhand -16.4012 53.9997
lfingers 7.12502
lthumb 9.81308 83.7511
rfemur -8.14903 12.0436 18.8623
rtibia 12.9554
rfoot -6.67826 -22.9049
rtoes -13.2828
lfemur -11.1077 -20.0369 -13.1803
ltibia 15.2681
lfoot -11.7372 16.34
ltoes -33.7304
238
root -1.53369 17.8092 0.839456 -121.532 89.8135 -130.407
lowerback 1.86893 -1.21839 2.43154
upperback -1.19973 -1.39434 4.12845
thorax -2.2392 -0.668665 2.93733
lowerneck -15.5584 -11.2298 -7.68731
upperneck 37.842 -15.781 6.10408
head 17.831 -6.23915 1.0588
rclavicle -7.95139e-015 -1.74931e-014
rhumerus -33.7087 -23.2057 -66.8418
rradius 48.6753
rwrist -49.5252
rhand -34.9441 4.71504
rfingers 7.12502
rthumb -8.09081 -25.1101
lclavicle -7.95139e-015 -1.74931e-014
lhumerus -34.4069 0.894685 90.4231
lradius 44.9449
lwrist 30.6279
lhand -16.4019 54.1117
lfingers 7.12502
lthumb 9.81239 83.8631
rfemur -8.00629 12.3045 19.0081
rtibia 12.7204
rfoot -6.51593 -22.9472
rtoes -13.6602
lfemur -11.046 -20.0664 -13.0664
ltibia 15.3903
lfoot -11.8685 16.5811
ltoes -33.6761
239
root -1.5275 17.8094 0.836241 -48.9381 89.7398 -57.8491
lowerback 1.67197 -1.20816 2.24569
upperback -1.25874 -1.3966 4.08238
thorax -2.18537 -0.668394 2.9901
lowerneck -15.4859 -11.1546 -7.77792
upperneck 37.8843 -15.6619 6.15022
head 17.8418 -6.19962 1.12455
rclavicle -1.68967e-014 2.54444e-014
rhumerus -34.0444 -23.7884 -66.4038
rradius 48.1822
rwrist -50.3802
rhand -35.184 3.27857
rfingers 7.12502
rthumb -8.3223 -26.5375
lclavicle -1.68967e-014 2.54444e-014
lhumerus -34.4372 0.705632 90.5377
lradius 44.9854
lwrist 30.7622
lhand -16.494 54.0863
lfingers 7.12502
lthumb 9.72359 83.8418
rfemur -7.92194 12.5774 19.0463
rtibia 12.4467
rfoot -6.34114 -22.9915
rtoes -13.8571
lfemur -11.0666 -19.8818 -13.0316
ltibia 15.544
lfoot -12.0413 16.616
ltoes -33.3235
240
root -1.52344 17.8075 0.829489 -27.866 89.5014 -36.7604
lowerback 1.55262 -1.18708 2.12191
upperback -1.29998 -1.37956 4.01866
thorax -2.15958 -0.659598 2.99076
lowerneck -15.4813 -11.0977 -7.83234
upperneck 37.9431 -15.5615 6.14238
head 17.8689 -6.16739 1.15226
rclavicle 1.59028e-015 1.59028e-014
rhumerus -34.4012 -24.272 -65.9623
rradius 47.7399
rwrist -51.014
rhand -35.0145 2.07352
rfingers 7.12502
rthumb -8.15876 -27.749
lclavicle 1.59028e-015 1.59028e-014
lhumerus -34.3656 0.494925 90.6675
lradius 44.8326
lwrist 30.809
lhand -16.6764 54.049
lfingers 7.12502
lthumb 9.54755 83.8127
rfemur -7.7768 12.8431 19.0803
rtibia 12.1595
rfoot -6.20064 -22.9752
rtoes -14.148
lfemur -11.0386 -19.753 -13.0241
ltibia 15.7097
lfoot -12.1504 16.7142
ltoes -32.9304
241
root -1.52119 17.8036 0.820337 -24.2553 89.2392 -33.1198
lowerback 1.51548 -1.17963 2.0822
upperback -1.36903 -1.37273 3.94918
thorax -2.2106 -0.656898 2.94126
lowerneck -15.3838 -11.0397 -7.88825
upperneck 37.9338 -15.4822 6.1953
head 17.8445 -6.14183 1.20771
rclavicle 3.57812e-015 4.77083e-015
rhumerus -34.7974 -24.7117 -65.5262
rradius 47.3286
rwrist -51.0348
rhand -34.5852 0.768172
rfingers 7.12502
rthumb -7.74446 -29.07
lclavicle 3.57812e-015 4.77083e-015
lhumerus -34.4168 0.261847 90.7303
lradius 44.7126
lwrist 30.759
lhand -16.5045 54.1797
lfingers 7.12502
lthumb 9.71345 83.9357
rfemur -7.6132 13.079 19.1577
rtibia 11.8649
rfoot -6.05437 -22.9297
rtoes -14.8398
lfemur -11.0054 -19.7354 -12.9748
ltibia 15.8932
lfoot -12.2638 16.9263
ltoes -32.666
242
root -1.51762 17.7995 0.81132 -21.6447 88.9687 -30.4911
lowerback 1.50097 -1.16736 2.04366
upperback -1.47311 -1.35788 3.85303
thorax -2.31135 -0.650561 2.86448
lowerneck -15.8453 -10.971 -7.62684
upperneck 38.4707 -15.3396 5.83209
head 18.1728 -6.05607 1.013
rclavicle 4.17448e-015 -6.36111e-015
rhumerus -35.1925 -25.051 -65.1309
rradius 46.7922
rwrist -50.7656
rhand -33.9512 -0.247716
rfingers 7.12502
rthumb -7.13246 -30.1075
lclavicle 4.17448e-015 -6.36111e-015
lhumerus -34.5839 0.0127547 90.7492
lradius 44.6102
lwrist 30.7202
lhand -16.2884 54.3279
lfingers 7.12502
lthumb 9.92197 84.074
rfemur -7.46348 13.3546 19.2098
rtibia 11.5746
rfoot -5.99546 -22.9137
rtoes -14.888
lfemur -10.9838 -19.7934 -12.9321
ltibia 16.0903
lfoot -12.475 17.2305
ltoes -32.5325
243
root -1.51278 17.796 0.802466 -19.849 88.6997 -28.6543
lowerback 1.42737 -1.14959 1.99436
upperback -1.52098 -1.34123 3.76111
thorax -2.32057 -0.64328 2.79554
lowerneck -15.6642 -10.9122 -7.6373
upperneck 38.4839 -15.2751 5.88907
head 18.1362 -6.02994 1.06576
rclavicle -6.95746e-015 1.27222e-014
rhumerus -35.4458 -25.321 -64.7574
rradius 46.1353
rwrist -50.5857
rhand -32.8033 -0.643036
rfingers 7.12502
rthumb -6.02432 -30.5374
lclavicle -6.95746e-015 1.27222e-014
lhumerus -34.6811 -0.194373 90.7851
lradius 44.4431
lwrist 30.6837
lhand -16.466 54.5168
lfingers 7.12502
lthumb 9.75054 84.2711
rfemur -7.30805 13.7806 19.246
rtibia 11.3305
rfoot -5.99403 -23.0326
rtoes -14.3809
lfemur -10.9168 -19.8222 -12.9163
ltibia 16.2557
lfoot -12.6915 17.4933
ltoes -32.3968
244
root -1.50989 17.7945 0.79535 -17.2877 88.5022 -26.0868
lowerback 1.27816 -1.17086 1.84124
upperback -1.5378 -1.38308 3.70007
thorax -2.25002 -0.663313 2.81634
lowerneck -15.7786 -10.8411 -7.69227
upperneck 38.6152 -15.1598 5.89721
head 18.2385 -5.98234 1.09832
rclavicle -3.27995e-015 -7.95139e-015
rhumerus -35.5205 -25.3721 -64.5291
rradius 45.6386
rwrist -50.5844
rhand -31.6553 -1.00234
rfingers 7.12502
rthumb -4.91589 -30.9253
lclavicle -3.27995e-015 -7.95139e-015
lhumerus -34.7717 -0.205782 90.7904
lradius 44.2421
lwrist 30.5718
lhand -16.6334 54.8437
lfingers 7.12502
lthumb 9.58909 84.6055
rfemur -7.20388 14.3558 19.215
rtibia 11.1313
rfoot -5.89146 -23.3654
rtoes -14.2924
lfemur -10.8919 -19.7578 -12.9477
ltibia 16.3819
lfoot -12.6181 17.5886
ltoes -32.8538
245
root -1.51026 17.7946 0.789078 -14.1552 88.3614 -22.9967
lowerback 1.10013 -1.19511 1.62022
upperback -1.56294 -1.43048 3.64699
thorax -2.16959 -0.685025 2.883
lowerneck -15.9384 -10.7733 -7.73052
upperneck 38.6732 -15.0511 5.90365
head 18.3082 -5.93861 1.12265
rclavicle -2.92213e-014 3.26007e-014
rhumerus -35.5425 -25.3218 -64.4018
rradius 45.3303
rwrist -50.3241
rhand -30.6039 -1.54096
rfingers 7.12502
rthumb -3.90062 -31.485
lclavicle -2.92213e-014 3.26007e-014
lhumerus -34.8249 -0.235506 90.8104
lradius 43.9681
lwrist 30.5229
lhand -16.5537 55.0152
lfingers 7.12502
lthumb 9.66596 84.7734
rfemur -7.15797 14.8444 19.1278
rtibia 10.9336
rfoot -5.82264 -23.6697
rtoes -14.1397
lfemur -10.9475 -19.6895 -12.9982
ltibia 16.498
lfoot -12.3354 17.6468
ltoes -34.0021
